<?xml version="1.0" encoding="UTF-8"?>
<svg width="196px" height="162px" viewBox="0 0 196 162" version="1.1" xmlns="http://www.w3.org/2000/svg" xmlns:xlink="http://www.w3.org/1999/xlink">
    <!-- Generator: Sketch 48.2 (47327) - http://www.bohemiancoding.com/sketch -->
    <title>Page 1</title>
    <desc>Created with Sketch.</desc>
    <defs>
        <polygon id="path-1" points="0 0.851487805 165.758064 0.851487805 165.758064 161.999908 0 161.999908"></polygon>
    </defs>
    <g id="Desktop-Copy-4" stroke="none" stroke-width="1" fill="none" fill-rule="evenodd" transform="translate(-1018.000000, -872.000000)" opacity="0.06">
        <g id="Page-1" transform="translate(1018.000000, 872.000000)">
            <g id="Group-3">
                <mask id="mask-2" fill="white">
                    <use xlink:href="#path-1"></use>
                </mask>
                <g id="Clip-2"></g>
                <path d="M83.1948,0.851487805 C130.0058,0.855439024 167.4538,38.8908659 165.6988,84.7497073 C165.3698,93.3436098 163.4148,101.649073 160.2738,109.69178 C159.4188,111.882732 158.4578,113.395061 156.0778,111.593305 C154.2918,110.241 149.8018,111.300915 151.7608,106.446841 C168.3508,65.3383537 141.0378,20.1018293 98.4998,11.168122 C51.9448,1.38984146 8.1838,36.2702195 8.8198,83.1889756 C9.2858,117.463829 37.9648,148.337671 72.5378,152.203939 C86.1048,153.721207 99.1668,152.34322 111.6098,146.960671 C116.4618,144.861585 116.2298,148.694268 117.6988,150.783476 C119.6838,153.609585 117.5488,154.228939 115.4528,155.163402 C66.7998,176.83189 7.4908,144.552402 0.7228,92.6877073 C-5.7592,43.0080366 32.1038,0.84654878 83.1948,0.851487805" id="Fill-1" fill="#020203" mask="url(#mask-2)"></path>
            </g>
            <path d="M153.204456,155 C152.457797,154.349665 151.825704,153.840284 151.241018,153.282299 C145.340826,147.651894 139.563103,141.890255 133.498962,136.435801 C130.836271,134.041518 132.168604,132.70974 134.039204,131.061058 C135.763632,129.540693 137.011028,127.0074 139.822854,130.044241 C143.13739,133.623515 147.010934,136.696324 150.378804,140.231852 C152.54866,142.509483 153.886919,142.574614 156.234551,140.26296 C166.808279,129.851765 177.688177,119.742895 188.256966,109.327812 C190.608549,107.010325 191.776933,108.068942 193.135933,109.894547 C194.363576,111.541284 197.904283,112.46964 194.678634,115.539533 C181.446166,128.136008 168.319376,140.840387 155.142216,153.492272 C154.572345,154.040537 153.887907,154.473122 153.204456,155" id="Fill-4" fill="#020203"></path>
            <path d="M81.9463681,119 C68.0425889,118.449902 56.4054813,113.1817 46.0859512,104.401015 C44.724554,103.242366 42.6132431,101.983509 45.2842506,100.167247 C47.3427788,98.7643417 48.1235654,93.7644035 52.1898308,97.3906635 C58.3425095,102.877026 65.4253601,106.565916 73.3019441,108.443763 C87.278424,111.774619 99.2501545,107.069041 109.402373,97.3353406 C113.267466,93.6287058 115.159679,94.6746219 117.866539,98.0921162 C119.168182,99.7351022 119.560567,100.683942 117.901396,102.307095 C107.617718,112.373777 95.8043357,118.6618 81.9463681,119" id="Fill-6" fill="#020203"></path>
            <path d="M62.5342315,71.9992459 C57.8568165,71.9341034 53.8199907,68.0025577 54.0061967,63.6945263 C54.1913908,59.4104444 58.000519,55.9866276 62.5656032,56.0000393 C67.4251764,56.014409 71.1098299,59.5943763 70.997499,64.1926754 C70.8952881,68.3742535 66.8979299,72.0605566 62.5342315,71.9992459" id="Fill-8" fill="#020203"></path>
            <path d="M100.796834,71.9978976 C96.1375105,72.1023177 91.9838654,68.3020003 92.0000471,63.9508429 C92.0152175,59.6686602 95.7319562,56.1030486 100.286099,56.0024604 C105.162865,55.8942084 108.983773,59.3707276 108.999955,63.9307253 C109.015125,68.1496811 105.202308,71.8992254 100.796834,71.9978976" id="Fill-10" fill="#020203"></path>
        </g>
    </g>
</svg>